<svg id="Capa_1" enable-background="new 0 0 492.481 492.481" height="512" viewBox="0 0 492.481 492.481" width="512" xmlns="http://www.w3.org/2000/svg"><path d="m109.491 206.767c-1.579 0-3.095.623-4.218 1.734l-46.867 46.335c-2.357 2.33-2.378 6.129-.049 8.485.016.016.032.033.049.049l46.867 46.335c1.123 1.11 2.639 1.733 4.218 1.733h108.66v175.043c0 3.314 2.686 6 6 6h53.991c3.314 0 6-2.686 6-6v-175.043h91.818c3.314 0 6-2.686 6-6v-92.671c0-3.314-2.686-6-6-6h-91.818v-35.929h98.848c1.579 0 3.095-.623 4.218-1.733l46.867-46.336c2.356-2.33 2.378-6.129.048-8.485-.016-.016-.032-.032-.048-.048l-46.864-46.336c-1.123-1.11-2.639-1.733-4.218-1.733h-98.851v-32.686c.266-18.223-14.292-33.212-32.516-33.477-18.223-.266-33.212 14.292-33.477 32.516-.005.32-.005.641 0 .961v32.686h-101.628c-3.314 0-6 2.686-6 6v92.671c0 3.314 2.686 6 6 6h101.63v35.929zm162.651 273.714h-41.991v-169.043h41.991zm97.818-181.043h-258.004l-40.8-40.335 40.8-40.336h258.007zm-139.808-265.957c-.253-11.595 8.941-21.2 20.537-21.453s21.2 8.941 21.453 20.537c.007.306.007.611 0 .917v32.686h-41.99zm-107.631 44.686h258.007l40.8 40.335-40.8 40.336h-258.007zm107.63 92.671h41.991v35.929h-41.991z"/></svg>