<?xml version="1.0" encoding="iso-8859-1"?>
<!-- Generator: Adobe Illustrator 19.0.0, SVG Export Plug-In . SVG Version: 6.00 Build 0)  -->
<svg version="1.1" id="Capa_1" xmlns="http://www.w3.org/2000/svg" xmlns:xlink="http://www.w3.org/1999/xlink" x="0px" y="0px"
	 viewBox="0 0 298 298" style="enable-background:new 0 0 298 298;" xml:space="preserve">
<g>
	<g>
		<path d="M225.923,153.599c-3.316-9.155-6.449-17.802-8.916-26.188c-15.394-52.341,25.22-114.358,25.628-114.975
			c1.636-2.454,1.788-5.61,0.396-8.211C241.639,1.623,238.928,0,235.977,0H62.022c-2.948,0-5.655,1.624-7.049,4.222
			c-1.392,2.598-1.243,5.754,0.388,8.21c0.412,0.62,41.025,62.638,25.632,114.979c-2.467,8.387-5.6,17.033-8.916,26.188
			c-14.601,40.305-31.15,85.988-3.183,140.076c1.374,2.656,4.115,4.325,7.106,4.325h145.998c2.991,0,5.732-1.669,7.107-4.325
			C257.073,239.587,240.523,193.903,225.923,153.599z M143.212,157.5c0-4.419,2.591-8,5.788-8s5.788,3.581,5.788,8s-2.591,8-5.788,8
			S143.212,161.919,143.212,157.5z M107.834,244.581c-14.822-4.029-29.478-5.718-37.9-6.403C69.584,230.096,70.089,222,71.461,213
			h155.078c1.436,9,1.922,17.873,1.473,26.309c-8.43,0.523-23.026,1.929-37.79,5.689c-21.707,5.528-34.263,13.753-41.254,22.472
			C139.341,255.572,122.647,248.608,107.834,244.581z"/>
	</g>
	<path d="M290,92h-32.962l11.355-10.894c3.188-3.059,3.294-8.123,0.234-11.311c-3.057-3.188-8.124-3.293-11.311-0.234
		c0,0-25.869,24.823-25.943,24.9c-3.059,3.188-2.954,8.252,0.234,11.311l25.709,24.666c1.551,1.488,3.545,2.227,5.537,2.227
		c2.103,0,4.203-0.824,5.774-2.462c3.059-3.188,2.954-8.252-0.234-11.311L257.038,108H290c4.418,0,8-3.582,8-8S294.418,92,290,92z"
		/>
	<path d="M8,92h32.962L29.607,81.106c-3.189-3.059-3.294-8.123-0.234-11.311c3.057-3.188,8.124-3.293,11.311-0.234
		c0,0,25.869,24.823,25.943,24.9c3.06,3.188,2.954,8.252-0.234,11.311l-25.709,24.666c-1.551,1.488-3.545,2.227-5.537,2.227
		c-2.103,0-4.203-0.824-5.774-2.462c-3.059-3.188-2.954-8.252,0.234-11.311L40.962,108H8c-4.418,0-8-3.582-8-8S3.582,92,8,92z"/>
</g>
<g>
</g>
<g>
</g>
<g>
</g>
<g>
</g>
<g>
</g>
<g>
</g>
<g>
</g>
<g>
</g>
<g>
</g>
<g>
</g>
<g>
</g>
<g>
</g>
<g>
</g>
<g>
</g>
<g>
</g>
</svg>
