<?xml version="1.0"?>
<svg xmlns="http://www.w3.org/2000/svg" xmlns:xlink="http://www.w3.org/1999/xlink" version="1.1" id="Capa_1" x="0px" y="0px" viewBox="0 0 512 512" style="enable-background:new 0 0 512 512;" xml:space="preserve" width="512px" height="512px"><g><g>
	<g>
		<path d="M48.574,425.285v5.691c0,44.677,36.347,81.024,81.024,81.024h252.804c44.677,0,81.024-36.347,81.024-81.024v-5.691H48.574    z" data-original="#000000" class="active-path" data-old_color="#000000" fill="#DD121F"/>
	</g>
</g><g>
	<g>
		<path d="M110.204,0v64.146c6.3-1.114,12.78-1.698,19.395-1.698h252.803c6.615,0,13.095,0.584,19.395,1.698V0H110.204z" data-original="#000000" class="active-path" data-old_color="#000000" fill="#DD121F"/>
	</g>
</g><g>
	<g>
		<path d="M48.574,209.163v186.122h414.852V209.163H48.574z M264.398,366.139l-27.615-11.722l15.788-37.193h-38.467l33.498-78.915    l27.615,11.722l-15.788,37.193h38.467L264.398,366.139z" data-original="#000000" class="active-path" data-old_color="#000000" fill="#DD121F"/>
	</g>
</g><g>
	<g>
		<path d="M382.402,92.448H129.598c-44.677,0-81.024,36.347-81.024,81.024v5.691h414.852v-5.691    C463.426,128.795,427.079,92.448,382.402,92.448z" data-original="#000000" class="active-path" data-old_color="#000000" fill="#DD121F"/>
	</g>
</g></g> </svg>
