<?xml version="1.0" encoding="iso-8859-1"?>
<!-- Generator: Adobe Illustrator 16.0.0, SVG Export Plug-In . SVG Version: 6.00 Build 0)  -->
<!DOCTYPE svg PUBLIC "-//W3C//DTD SVG 1.1//EN" "http://www.w3.org/Graphics/SVG/1.1/DTD/svg11.dtd">
<svg version="1.1" id="Capa_1" xmlns="http://www.w3.org/2000/svg" xmlns:xlink="http://www.w3.org/1999/xlink" x="0px" y="0px"
	 width="154.069px" height="154.069px" viewBox="0 0 154.069 154.069" style="enable-background:new 0 0 154.069 154.069;"
	 xml:space="preserve">
<g>
	<path d="M69.731,11.956C69.731,5.368,75.099,0,81.685,0c6.588,0,11.958,5.368,11.958,11.956c0,6.598-5.37,11.959-11.958,11.959
		C75.099,23.916,69.731,18.554,69.731,11.956z M15.488,132.839c0.717,0,1.46-0.144,2.155-0.461l38.074-16.818
		c1.346-0.593,2.389-1.731,2.87-3.11L69.26,81.828l22.208,19.579l-2.451,31.896c-0.229,2.917,1.97,5.489,4.883,5.71
		c0.135,0.02,0.271,0.02,0.414,0.02c2.741,0,5.078-2.121,5.286-4.913l2.653-34.54c0.14-1.653-0.528-3.283-1.767-4.387L72.665,70.651
		l5.726-28.632l17.171,12.725c2.177,1.631,5.264,1.338,7.12-0.711l15.94-17.718c1.968-2.181,1.784-5.524-0.406-7.497
		c-2.151-1.962-5.527-1.771-7.497,0.396L98.008,43.33L77.979,28.503c-0.117-0.082-0.256-0.082-0.368-0.156
		c-0.556-0.342-1.116-0.583-1.76-0.71c-0.269-0.059-0.516-0.07-0.79-0.081c-0.264-0.011-0.516-0.112-0.775-0.076l-26.563,2.665
		c-1.727,0.165-3.245,1.16-4.091,2.668l-11.515,20.38c-1.445,2.55-0.542,5.797,2.005,7.245c0.832,0.465,1.732,0.684,2.617,0.684
		c1.851,0,3.654-0.982,4.627-2.698L51.52,40.449l16.681-1.669L61.715,71.24l-12.399,35.562l-35.977,15.892
		c-2.684,1.182-3.893,4.316-2.7,7.004C11.503,131.655,13.452,132.839,15.488,132.839z M145.003,80.681l-14.076-25.504l13.078-12.355
		c1.549-1.454,2.062-3.7,1.329-5.699l-6.199-16.832c-1-2.764-4.087-4.186-6.818-3.149c-2.745,1.009-4.159,4.062-3.146,6.818
		l4.981,13.538L104.82,65.193c-2.129,2.013-2.223,5.374-0.209,7.521c1.04,1.093,2.451,1.65,3.853,1.65
		c1.302,0,2.632-0.471,3.655-1.445l10.835-10.23l11.764,21.327l-13.657,59.427H13.716c-2.937,0-5.313,2.374-5.313,5.313
		c0,2.938,2.376,5.312,5.313,5.312h111.58c2.474,0,4.63-1.718,5.182-4.115l15.066-65.543
		C145.815,83.157,145.638,81.816,145.003,80.681z"/>
</g>
<g>
</g>
<g>
</g>
<g>
</g>
<g>
</g>
<g>
</g>
<g>
</g>
<g>
</g>
<g>
</g>
<g>
</g>
<g>
</g>
<g>
</g>
<g>
</g>
<g>
</g>
<g>
</g>
<g>
</g>
</svg>
