<svg xmlns="http://www.w3.org/2000/svg" width="30.525" height="31.631" viewBox="0 0 30.525 31.631">
  <path id="Path_287" data-name="Path 287" d="M26.505,25.111l-2.476-.5c-.54-.922-1.238-2.146-1.528-2.634a12.958,12.958,0,0,0,2.449-5.1.619.619,0,0,0,0-.158v-.711c1.2-.869,1.541-3.951,1.607-4.635a9.574,9.574,0,0,0-2.963-6.742A8.151,8.151,0,0,0,17.84,2h-.448c-.066,0-7.124.342-8.467,7.309a6.835,6.835,0,0,0,1.435,6.268h0V16.63a.619.619,0,0,0,0,.145,12.049,12.049,0,0,0,2.634,5.267l-1.9,2.568L8.754,25.1A8.02,8.02,0,0,0,2.38,33a.632.632,0,0,0,.632.632H32.273A.632.632,0,0,0,32.9,33a8.007,8.007,0,0,0-6.4-7.888ZM15.588,27.85a4.951,4.951,0,0,1-3.318-2.634l1.646-2.291a5.992,5.992,0,0,0,3.055,1.317l-1.093,3.674A.619.619,0,0,0,15.588,27.85Zm2.094-1.488,2.12,5.926H15.931Zm.632-2.041A5.926,5.926,0,0,0,21.54,22.9c.329.593.869,1.528,1.317,2.278a4.965,4.965,0,0,1-3.305,2.634Zm-8.138-14.7a7.8,7.8,0,0,1,7.216-6.308h.435A7.137,7.137,0,0,1,22.712,5.5a8.283,8.283,0,0,1,2.634,5.768A13.879,13.879,0,0,1,25,13.246v-.79h0a.777.777,0,0,0-.119-.408c-.237-.342-.606-.4-1.62-.54A17.409,17.409,0,0,1,18,10.112a9.218,9.218,0,0,1-3.49-3.621.632.632,0,0,0-.553-.342.7.7,0,0,0-.566.316C12.257,8.347,10.4,11.639,10.4,12.456v.909a6.584,6.584,0,0,1-.224-3.74Zm1.5,2.91a30.09,30.09,0,0,1,2.239-4.451,9.534,9.534,0,0,0,3.49,3.134,18.541,18.541,0,0,0,5.649,1.514l.645.092v3.727c-.658,2.568-2.291,6.518-6.018,6.518-3.108,0-5.267-3.358-6-6.492ZM9.043,26.388l2.107-.435a6.15,6.15,0,0,0,4.174,3.2h.211L14.6,32.288H3.75a6.742,6.742,0,0,1,5.333-5.952Zm12.115,5.9L20,29.009a6.216,6.216,0,0,0,3.951-3.134l2.318.461a6.729,6.729,0,0,1,5.346,5.952Z" transform="translate(-2.38 -2)" fill="#dd121f"/>
</svg>
