<svg xmlns="http://www.w3.org/2000/svg" width="23.85" height="33.035" viewBox="0 0 23.85 33.035">
  <g id="Group_480" data-name="Group 480" transform="translate(-13.493 -7.044)">
    <path id="Path_18" data-name="Path 18" d="M35.8,20.981l-.866.862a2.706,2.706,0,0,0-.792,1.912v1.225a2.708,2.708,0,0,1-2.7,2.707H30.209a2.713,2.713,0,0,0-1.912.788l-.866.869a2.711,2.711,0,0,1-1.637.781,3.76,3.76,0,0,1-.55,0,2.712,2.712,0,0,1-1.637-.781l-.866-.869a2.713,2.713,0,0,0-1.912-.788H19.6a2.708,2.708,0,0,1-2.7-2.707V23.755a2.706,2.706,0,0,0-.792-1.912l-.866-.862a2.709,2.709,0,0,1,0-3.824l.866-.869a2.683,2.683,0,0,0,.792-1.912V13.151a2.7,2.7,0,0,1,2.7-2.7h1.228a2.72,2.72,0,0,0,1.912-.794l.866-.869a2.715,2.715,0,0,1,3.824,0l.866.869a2.72,2.72,0,0,0,1.912.794h1.228a2.7,2.7,0,0,1,2.7,2.7v1.225a2.683,2.683,0,0,0,.792,1.912l.866.869A2.7,2.7,0,0,1,35.8,20.981Z" fill="none" stroke="#dd121f" stroke-linecap="round" stroke-linejoin="round" stroke-miterlimit="10" stroke-width="1.5"/>
    <ellipse id="Ellipse_1" data-name="Ellipse 1" cx="7.045" cy="7.059" rx="7.045" ry="7.059" transform="translate(18.475 12.008)" fill="none" stroke="#dd121f" stroke-linecap="round" stroke-linejoin="round" stroke-miterlimit="10" stroke-width="1.5"/>
    <g id="Group_30" data-name="Group 30" transform="translate(15.75 27.687)">
      <path id="Path_19" data-name="Path 19" d="M35.583,35.65l4.294,9.2L36.14,43.629l-1.463,3.663-4.294-9.2" transform="translate(-20.339 -35.65)" fill="none" stroke="#dd121f" stroke-linecap="round" stroke-linejoin="round" stroke-miterlimit="10" stroke-width="1.5"/>
      <path id="Path_20" data-name="Path 20" d="M25.77,38.087l-4.294,9.2-1.463-3.663-3.737,1.219,4.294-9.2" transform="translate(-16.276 -35.65)" fill="none" stroke="#dd121f" stroke-linecap="round" stroke-linejoin="round" stroke-miterlimit="10" stroke-width="1.5"/>
    </g>
  </g>
</svg>
