<svg xmlns="http://www.w3.org/2000/svg" width="41.344" height="21.996" viewBox="0 0 41.344 21.996">
  <g id="Group_481" data-name="Group 481" transform="translate(-2.738 -24.856)">
    <path id="Path_21" data-name="Path 21" d="M40.8,34.134V32.849a3.444,3.444,0,0,0-3.44-3.44H33.217a.875.875,0,0,0-.875.875V41.766H30.2V28.3a3.443,3.443,0,0,0-3.44-3.439H12.8A3.443,3.443,0,0,0,9.357,28.3v1.274H8.428a.875.875,0,0,0,0,1.75H16.45a.875.875,0,1,0,0-1.75H11.107V28.3a1.692,1.692,0,0,1,1.69-1.69H26.76a1.692,1.692,0,0,1,1.69,1.69V41.766H21.023a4.211,4.211,0,0,0-8.238,0H11.107V37.738h.53a.875.875,0,0,0,0-1.75H3.613a.875.875,0,0,0,0,1.75H9.357v4.9a.875.875,0,0,0,.875.875h2.554a4.211,4.211,0,0,0,8.238,0H32.435a4.211,4.211,0,0,0,8.238,0h2.534a.875.875,0,0,0,.875-.875V37.57A3.444,3.444,0,0,0,40.8,34.134ZM16.9,45.1a2.462,2.462,0,1,1,2.462-2.462A2.465,2.465,0,0,1,16.9,45.1Zm19.65,0a2.462,2.462,0,1,1,2.462-2.462A2.465,2.465,0,0,1,36.555,45.1Zm5.778-3.336H40.673a4.2,4.2,0,0,0-6.581-2.535V31.158h3.27a1.693,1.693,0,0,1,1.691,1.691v2.157a.875.875,0,0,0,.875.875h.714a1.692,1.692,0,0,1,1.691,1.69Z" fill="#dd121f"/>
    <path id="Path_22" data-name="Path 22" d="M9.117,44.719H17.14a.875.875,0,1,0,0-1.75H9.117a.875.875,0,1,0,0,1.75Z" transform="translate(-3.097 -10.19)" fill="#dd121f"/>
  </g>
</svg>
