<svg xmlns="http://www.w3.org/2000/svg" width="33" height="31.458" viewBox="0 0 33 31.458">
  <g id="noun_Star_2850426" transform="translate(-3.653 -5.702)">
    <g id="Group_29" data-name="Group 29" transform="translate(3.653 5.702)">
      <path id="Path_17" data-name="Path 17" d="M29.885,37.16a.752.752,0,0,1-.308-.066l-9.425-4.226-9.424,4.226a.753.753,0,0,1-1.056-.768l1.107-10.269L3.847,18.4a.752.752,0,0,1,.4-1.241L14.36,15.038,19.5,6.08a.753.753,0,0,1,1.306,0l5.141,8.958,10.108,2.121a.752.752,0,0,1,.4,1.241l-6.932,7.657,1.107,10.269a.752.752,0,0,1-.748.833Zm-9.732-5.869a.756.756,0,0,1,.308.066L29,35.184l-1-9.3a.753.753,0,0,1,.19-.586l6.278-6.935-9.155-1.921a.752.752,0,0,1-.5-.362L20.153,7.967,15.5,16.08a.753.753,0,0,1-.5.362L5.844,18.363,12.122,25.3a.751.751,0,0,1,.19.586l-1,9.3,8.536-3.827A.744.744,0,0,1,20.153,31.291Z" transform="translate(-3.653 -5.702)" fill="#dd121f"/>
    </g>
  </g>
</svg>
